<?xml version="1.0" encoding="utf-8"?>
<!-- Generator: Adobe Illustrator 27.5.0, SVG Export Plug-In . SVG Version: 6.00 Build 0)  -->
<svg version="1.1" id="Layer_1" xmlns="http://www.w3.org/2000/svg" xmlns:xlink="http://www.w3.org/1999/xlink" x="0px" y="0px"
	 viewBox="0 0 322.2 329.5" enable-background="new 0 0 322.2 329.5" xml:space="preserve">
<circle stroke="#000000" cx="160.8" cy="165" r="145"/>
<circle fill="#FFFFFF" stroke="#000000" cx="160.8" cy="165.5" r="116"/>
<polygon fill="none" stroke="#000000" stroke-width="2" stroke-linecap="round" stroke-linejoin="round" points="146.6,207.7 
	137.9,189.7 137.9,207.7 146.6,207.7 "/>
<polygon fill="none" stroke="#000000" stroke-width="2" stroke-linecap="round" stroke-linejoin="round" points="175.9,207.7 
	184.7,189.7 184.7,207.7 175.9,207.7 "/>
<path fill-rule="evenodd" clip-rule="evenodd" fill="#EA0029" stroke="#EA0029" stroke-width="0.5" stroke-miterlimit="3.8637" d="
	M153.5,211.5l-20.4-43v43h10.6v21.6H91.6v-21.6h12.5v-61.4H91.6V129h59.3c0.1,0.1-3.8-0.9-6.2,2.6c-3,3.9-3.2,5.9-2.4,11
	c0.3,2.6,19,27.4,19,27.4c0,0.1,18.7-24.8,19-27.4c0.9-5.2,0.6-7.1-2.4-11c-2.4-3.5-6.3-2.6-6.2-2.6h59.3v21.1h-12.5v61.4h12.5v21.6
	H179v-21.6h10.3v-43l-20.4,43H153.5L153.5,211.5z"/>
<polygon fill="#CB9700" stroke="#CB9700" stroke-width="0.25" stroke-miterlimit="3.8637" points="128.3,115.1 148.7,100.4 
	140.8,76.4 161.2,91.1 181.6,76.4 173.9,100.4 194.3,115.1 169.1,115.1 161.2,139.1 153.5,115.1 128.3,115.1 "/>
<polygon fill="none" stroke="#000000" stroke-width="2" stroke-linecap="round" stroke-linejoin="round" points="170.8,123.9 
	236.1,123.9 236.1,154.7 224.1,154.7 224.1,207.7 236.1,207.7 236.1,238.4 173.2,238.4 173.2,213.5 171.1,218 151.4,218 
	149.2,213.5 149.2,238.4 86.3,238.4 86.3,207.7 98.3,207.7 98.3,154.7 86.3,154.7 86.3,123.9 151.9,123.9 150.4,119.6 115.1,119.6 
	143.7,99 132.7,65.4 161.2,86 189.8,65.4 179,99 207.5,119.6 172.3,119.6 170.8,123.9 "/>
<path fill="none" stroke="#000000" stroke-width="2" stroke-linecap="round" stroke-linejoin="round" d="M161.2,148.4l6.2-15.8
	c-0.1,0.1,3.7-0.4,5.5,1.9c2,2.9,2.2,4.3,1.7,7.9c-0.3,1.8-13.4,19.4-13.4,19.4c0-0.1-13.1-17.6-13.4-19.4c-0.5-3.6-0.3-5,1.7-7.9
	c1.8-2.3,5.6-1.8,5.5-1.9L161.2,148.4L161.2,148.4z"/>
<g>
	<path fill="#FFFFFF" d="M42.7,230.2L42.7,230.2l10.3-5.1l-0.9-1.7l2.1-1.1l2.9,5.9l-2.1,1.1l-0.8-1.5L43,233.3l0.8,1.5l-2.1,1.1
		l-3-5.9l7.4-7.4l0,0l-10.5,1.2l-2.8-5.6l2.1-1.1l0.8,1.5l11.3-5.7l-0.8-1.5l2.1-1.1l2.9,5.8l-2.1,1.1l-0.9-1.7L38,220.7l0,0
		l12.4-1.4l0.9,1.7L42.7,230.2z"/>
	<path fill="#FFFFFF" d="M47.2,206.7l-2.2,0.7l-0.6-1.7l-12,4l0.6,1.7l-2.2,0.7l-2.1-6.4l2.2-0.7l0.6,1.7l12-4l-0.6-1.7l2.2-0.7
		L47.2,206.7z"/>
	<path fill="#FFFFFF" d="M37.4,194.9c1.1-0.4,1.9-1,2.5-1.9c0.6-0.9,0.7-1.9,0.5-3c-0.1-0.7-0.5-1.2-1.1-1.6
		c-0.6-0.4-1.2-0.5-1.9-0.4c-0.8,0.2-1.4,0.5-1.6,1c-0.2,0.5-0.4,1.2-0.4,2c0,0.3,0,0.7,0,1c0,0.4,0,0.7-0.1,1.1c0,0.2,0,0.5,0,0.9
		c0,0.4-0.1,0.9-0.3,1.5c-0.2,0.6-0.6,1.3-1.2,1.9c-0.6,0.6-1.4,1.1-2.7,1.3c-0.3,0.1-0.6,0.1-0.9,0.1c-0.3,0-0.7-0.1-1.1-0.1
		c-0.8-0.2-1.5-0.6-2.3-1.3c-0.7-0.6-1.3-1.6-1.5-3c-0.1-0.7-0.1-1.3,0-2c0.1-0.7,0.4-1.3,0.7-1.8L25,191l-0.5-2.5l5.1-1.1l0.5,2.3
		c-0.4,0.2-0.8,0.4-1.1,0.7c-0.3,0.3-0.6,0.6-0.8,0.9c-0.2,0.4-0.4,0.7-0.4,1.2c-0.1,0.4-0.1,0.9,0,1.3c0.1,0.7,0.5,1.2,1,1.6
		c0.5,0.4,1.1,0.5,1.8,0.3c0.6-0.1,1-0.5,1.2-1.2c0.2-0.7,0.3-1.5,0.3-2.4c0-0.2,0-0.5,0-0.8c0-0.3,0-0.5,0.1-0.8
		c0.1-1.2,0.4-2.4,0.8-3.5c0.4-1.1,1.6-1.8,3.4-2.2c1.6-0.3,3-0.1,4.1,0.7s1.9,2,2.2,3.5c0.2,0.8,0.2,1.6,0.1,2.3
		c-0.1,0.8-0.3,1.5-0.7,2.2l1-0.2l0.5,2.5l-5.8,1.2L37.4,194.9z"/>
	<path fill="#FFFFFF" d="M34.5,177.3c1.1-0.2,2.1-0.7,2.7-1.5c0.7-0.8,1-1.8,0.9-2.9c0-0.7-0.3-1.3-0.9-1.8
		c-0.5-0.5-1.1-0.7-1.9-0.7c-0.9,0.1-1.4,0.3-1.7,0.8s-0.5,1.1-0.7,2c-0.1,0.3-0.1,0.7-0.2,1c-0.1,0.4-0.2,0.7-0.2,1.1
		c0,0.2-0.1,0.5-0.2,0.9s-0.2,0.9-0.5,1.4c-0.3,0.6-0.8,1.2-1.4,1.7c-0.6,0.5-1.6,0.9-2.8,0.9c-0.3,0-0.6,0-0.9-0.1
		c-0.3-0.1-0.7-0.2-1-0.3c-0.7-0.3-1.4-0.8-2.1-1.6c-0.6-0.7-1-1.8-1.1-3.1c0-0.7,0-1.3,0.3-2c0.2-0.6,0.5-1.2,1-1.7l-1.1,0.1
		l-0.2-2.5l5.2-0.4l0.2,2.4c-0.4,0.1-0.8,0.3-1.2,0.5c-0.4,0.2-0.7,0.5-0.9,0.8c-0.3,0.3-0.5,0.7-0.6,1.1c-0.1,0.4-0.2,0.8-0.2,1.3
		c0,0.7,0.3,1.3,0.7,1.7c0.4,0.4,1,0.6,1.8,0.6c0.6,0,1.1-0.4,1.4-1c0.3-0.6,0.5-1.4,0.7-2.3c0-0.2,0.1-0.5,0.2-0.8
		c0.1-0.3,0.1-0.5,0.2-0.8c0.3-1.2,0.7-2.3,1.3-3.3c0.6-1,1.8-1.6,3.7-1.7c1.6-0.1,2.9,0.3,4,1.3c1,1,1.6,2.2,1.7,3.8
		c0.1,0.8,0,1.6-0.2,2.3c-0.2,0.7-0.5,1.4-1,2.1l1.1-0.1l0.2,2.5l-5.9,0.4L34.5,177.3z"/>
	<path fill="#FFFFFF" d="M39.8,162.8l-2.3-0.1l0.1-1.8L25,160.3l-0.1,1.8l-2.3-0.1l0.3-6.7l2.3,0.1l-0.1,1.8l12.6,0.6l0.1-1.8
		l2.3,0.1L39.8,162.8z"/>
	<path fill="#FFFFFF" d="M35,148.3c1.2,0,2.2-0.2,3-0.9c0.8-0.6,1.4-1.5,1.5-2.6c0.1-0.7,0-1.3-0.4-1.9c-0.4-0.6-1-0.9-1.7-1.1
		c-0.9-0.1-1.5,0-1.9,0.4c-0.4,0.4-0.8,1-1.1,1.8c-0.1,0.3-0.3,0.6-0.4,1c-0.2,0.3-0.3,0.7-0.5,1c-0.1,0.2-0.2,0.4-0.4,0.8
		c-0.2,0.4-0.4,0.8-0.8,1.3c-0.4,0.5-1,1-1.8,1.4c-0.8,0.4-1.7,0.5-2.9,0.3c-0.3,0-0.6-0.1-0.9-0.3c-0.3-0.1-0.6-0.3-0.9-0.5
		c-0.7-0.5-1.2-1.1-1.7-2c-0.5-0.9-0.6-2-0.4-3.3c0.1-0.7,0.3-1.3,0.7-1.8c0.4-0.6,0.8-1,1.3-1.4l-1.1-0.2l0.4-2.5l5.1,0.8l-0.4,2.4
		c-0.5,0-0.9,0.1-1.3,0.2c-0.4,0.1-0.8,0.3-1.1,0.6c-0.3,0.3-0.6,0.6-0.8,0.9c-0.2,0.4-0.4,0.8-0.4,1.3c-0.1,0.7,0,1.3,0.3,1.8
		c0.3,0.5,0.9,0.8,1.6,1c0.6,0.1,1.1-0.1,1.5-0.7c0.4-0.6,0.8-1.3,1.2-2.1c0.1-0.2,0.2-0.5,0.3-0.7c0.1-0.2,0.2-0.5,0.3-0.7
		c0.5-1.1,1.2-2.1,2-2.9c0.8-0.8,2.1-1.1,4-0.8c1.6,0.3,2.8,1,3.6,2.2c0.8,1.2,1.1,2.6,0.8,4.1c-0.1,0.8-0.4,1.5-0.7,2.2
		c-0.3,0.7-0.8,1.3-1.4,1.8l1,0.2l-0.4,2.5l-5.9-0.9L35,148.3z"/>
	<path fill="#FFFFFF" d="M38.6,130.7c1.1,0.2,2.2,0.1,3.1-0.4c0.9-0.5,1.6-1.3,1.9-2.4c0.2-0.7,0.2-1.3-0.2-2
		c-0.3-0.6-0.8-1.1-1.5-1.3c-0.8-0.3-1.5-0.2-1.9,0.1c-0.4,0.3-0.9,0.9-1.4,1.6c-0.2,0.3-0.4,0.6-0.6,0.9c-0.2,0.3-0.4,0.6-0.6,1
		c-0.1,0.1-0.3,0.4-0.5,0.8c-0.2,0.4-0.5,0.8-1,1.2c-0.5,0.5-1.1,0.8-1.9,1.1c-0.8,0.3-1.8,0.2-3-0.1c-0.3-0.1-0.5-0.2-0.8-0.4
		c-0.3-0.2-0.6-0.4-0.9-0.6c-0.6-0.5-1-1.3-1.4-2.2c-0.3-0.9-0.3-2,0.1-3.3c0.2-0.6,0.5-1.2,1-1.7c0.4-0.5,0.9-0.9,1.5-1.2l-1.1-0.3
		l0.7-2.4l5,1.5l-0.7,2.3c-0.5,0-0.9,0-1.3,0.1c-0.4,0.1-0.8,0.2-1.2,0.4c-0.4,0.2-0.7,0.5-1,0.8c-0.3,0.3-0.5,0.7-0.6,1.2
		c-0.2,0.7-0.2,1.3,0.1,1.8c0.3,0.6,0.7,0.9,1.5,1.2c0.6,0.2,1.2,0,1.6-0.5c0.5-0.5,1-1.1,1.4-1.9c0.1-0.2,0.3-0.4,0.4-0.7
		c0.1-0.2,0.3-0.5,0.4-0.7c0.7-1,1.5-1.9,2.4-2.6s2.3-0.8,4-0.3c1.5,0.5,2.6,1.4,3.3,2.6c0.6,1.3,0.7,2.7,0.2,4.2
		c-0.2,0.8-0.6,1.5-1,2.1c-0.4,0.6-1,1.2-1.7,1.6l1,0.3l-0.7,2.4l-5.7-1.8L38.6,130.7z"/>
	<path fill="#FFFFFF" d="M48.8,119.2l-2.2-1l0.7-1.7l-11.5-5.1l-0.7,1.7l-2.2-1l2.7-6.1l2.2,1l-0.7,1.6l11.5,5.1l0.7-1.6l2.2,1
		L48.8,119.2z"/>
	<path fill="#FFFFFF" d="M53.1,109.6l-2-1.2l1-1.6l-10.9-6.4l-1,1.6l-2-1.2l3.3-5.7c0.9-1.4,2-2.6,3.4-3.4c1.4-0.8,3-0.7,4.8,0.4
		c1.6,0.9,2.5,2.1,2.6,3.4c0.1,1.3,0,2.6-0.6,3.8c-0.1,0.1-0.1,0.3-0.2,0.4c-0.1,0.1-0.1,0.3-0.2,0.4l-1.1,1.9l3.5,2l1.1-1.9l2,1.2
		L53.1,109.6z M48.1,100.8l0.4-0.7c0,0,0,0,0.1,0c0,0,0-0.1,0.1-0.1c0,0,0.1-0.1,0.1-0.1s0.1-0.1,0.1-0.2c0.1-0.2,0.2-0.4,0.3-0.6
		c0.1-0.3,0.2-0.5,0.3-0.8c0.1-0.5,0.1-1.1,0-1.7c-0.1-0.6-0.6-1.2-1.4-1.6c-0.8-0.5-1.5-0.6-2.2-0.5c-0.6,0.2-1.1,0.5-1.6,0.9
		c-0.2,0.2-0.4,0.4-0.6,0.7c-0.2,0.2-0.3,0.4-0.4,0.6c0,0.1-0.1,0.1-0.1,0.2c0,0.1-0.1,0.1-0.1,0.1c0,0.1,0,0.1-0.1,0.1
		c0,0,0,0.1,0,0.1l-0.4,0.6L48.1,100.8z"/>
	<path fill="#FFFFFF" d="M62,95l-1.8-1.5l1.2-1.5l-9.9-7.9l-1.2,1.5l-1.8-1.5l4.1-5.1c1.1-1.3,2.3-2.3,3.8-2.9c1.5-0.6,3-0.3,4.7,1
		c1.5,1.2,2.2,2.4,2.1,3.8s-0.4,2.6-1.1,3.7c-0.1,0.1-0.2,0.2-0.3,0.4c-0.1,0.1-0.2,0.3-0.3,0.4l-1.4,1.7l3.1,2.5l1.4-1.7l1.8,1.5
		L62,95z M58.3,85.6l0.5-0.6c0,0,0,0,0.1,0c0,0,0-0.1,0.1-0.1c0,0,0.1-0.1,0.1-0.1c0-0.1,0.1-0.1,0.1-0.2c0.1-0.2,0.3-0.4,0.4-0.6
		c0.2-0.2,0.3-0.5,0.4-0.8c0.2-0.5,0.3-1.1,0.2-1.7c-0.1-0.6-0.4-1.2-1.2-1.8c-0.8-0.6-1.4-0.9-2.1-0.8s-1.2,0.3-1.7,0.6
		c-0.2,0.2-0.5,0.4-0.7,0.6c-0.2,0.2-0.4,0.4-0.5,0.5c-0.1,0.1-0.1,0.1-0.1,0.2c0,0.1-0.1,0.1-0.1,0.1c0,0.1-0.1,0.1-0.1,0.1
		c0,0,0,0.1-0.1,0.1l-0.5,0.5L58.3,85.6z"/>
	<path fill="#FFFFFF" d="M73,81.8l-1.7-1.7l1.3-1.3l-8.9-8.9l-1.3,1.3l-1.7-1.7l4.8-4.7l1.7,1.7l-1.3,1.3l8.9,8.9l1.3-1.3l1.7,1.7
		L73,81.8z"/>
	<path fill="#FFFFFF" d="M90.1,59.6c0.7,0.9,1.6,1.5,2.6,1.7s2,0,3-0.6c0.6-0.4,1-0.9,1.2-1.6c0.2-0.7,0.1-1.3-0.3-1.9
		c-0.5-0.7-1-1.1-1.5-1.1S93.8,56,93,56.3c-0.3,0.1-0.6,0.2-1,0.3c-0.3,0.1-0.7,0.2-1.1,0.3c-0.2,0-0.5,0.1-0.9,0.3
		s-0.9,0.2-1.5,0.3c-0.7,0-1.4-0.1-2.2-0.4c-0.8-0.3-1.5-1-2.2-2c-0.1-0.2-0.3-0.5-0.4-0.8c-0.1-0.3-0.2-0.7-0.2-1
		c-0.1-0.8,0-1.7,0.4-2.6c0.3-0.9,1.1-1.7,2.2-2.5c0.6-0.4,1.2-0.6,1.8-0.7c0.7-0.1,1.3-0.1,1.9,0l-0.6-0.9l2.1-1.3l2.8,4.4l-2,1.3
		c-0.3-0.3-0.7-0.6-1-0.8c-0.4-0.2-0.8-0.4-1.1-0.4c-0.4-0.1-0.8-0.1-1.2,0c-0.4,0.1-0.8,0.2-1.2,0.5c-0.6,0.4-1,0.9-1.1,1.4
		c-0.2,0.6-0.1,1.2,0.4,1.8c0.3,0.5,0.9,0.8,1.5,0.7s1.5-0.2,2.3-0.5c0.2-0.1,0.5-0.2,0.7-0.2s0.5-0.2,0.8-0.2
		c1.2-0.3,2.4-0.5,3.5-0.4c1.2,0,2.2,0.9,3.2,2.4c0.9,1.4,1.1,2.7,0.8,4.1s-1.2,2.5-2.5,3.3c-0.7,0.4-1.4,0.7-2.1,0.9
		c-0.7,0.2-1.5,0.2-2.3,0.1l0.6,0.9l-2.1,1.3l-3.2-5L90.1,59.6z"/>
	<path fill="#FFFFFF" d="M105.3,57.4l-1-2.1l1.7-0.8l-5.2-11.5l-1.7,0.8l-1-2.1l6-2.7c1.5-0.7,3.1-0.9,4.7-0.8
		c1.6,0.1,2.8,1.2,3.7,3c0.8,1.7,0.8,3.2,0.2,4.3s-1.5,2.1-2.7,2.7c-0.1,0.1-0.3,0.1-0.4,0.2c-0.1,0.1-0.3,0.1-0.4,0.2l-2,0.9
		l1.6,3.7l2-0.9l1,2.1L105.3,57.4z M106.3,47.3L107,47c0,0,0,0,0.1,0c0,0,0.1,0,0.1,0c0.1,0,0.1,0,0.2,0c0.1,0,0.1-0.1,0.2-0.1
		c0.2-0.1,0.4-0.2,0.7-0.3c0.2-0.1,0.5-0.3,0.7-0.5c0.4-0.4,0.8-0.8,1-1.4c0.2-0.6,0.2-1.3-0.2-2.1c-0.4-0.9-0.9-1.4-1.5-1.6
		c-0.6-0.2-1.2-0.3-1.8-0.2c-0.3,0-0.6,0.1-0.8,0.2s-0.5,0.2-0.7,0.3c-0.1,0-0.1,0.1-0.2,0.1c-0.1,0-0.1,0-0.2,0.1
		c-0.1,0-0.1,0.1-0.1,0.1c0,0-0.1,0-0.1,0l-0.7,0.3L106.3,47.3z"/>
	<path fill="#FFFFFF" d="M123.2,47.8c-1.8-1.1-3.1-2.6-3.9-4.3c-0.1-0.2-0.2-0.5-0.3-0.7s-0.2-0.5-0.2-0.7c-0.6-2.4-0.4-4.7,0.9-6.9
		c1.2-2.2,3.1-3.6,5.6-4.2c2.5-0.7,4.9-0.4,7,0.9s3.5,3.1,4.1,5.5c0.7,2.5,0.3,4.8-1,6.9c-1.3,2.1-3.2,3.5-5.5,4.1
		C127.2,49.2,125,49,123.2,47.8z M122.3,36.7c-0.7,1.5-0.8,3.1-0.4,4.9c0.4,1.6,1.3,2.7,2.7,3.5c1.4,0.8,2.8,1,4.4,0.6
		c1.7-0.5,3-1.4,3.8-2.9c0.8-1.5,1-3.1,0.5-4.8c-0.4-1.6-1.3-2.9-2.7-3.7c-1.4-0.9-2.9-1.1-4.5-0.7C124.3,34.2,123,35.2,122.3,36.7z
		"/>
	<path fill="#FFFFFF" d="M142.5,45.2l-0.2-2.3l1.8-0.2L143,30.2l-1.8,0.2l-0.2-2.3l7.4-0.7c0,0,0.1,0,0.1,0c0,0,0.1,0,0.1,0
		c0.4,0,0.8-0.1,1.3-0.1c0.5,0,1,0,1.5,0.2c0.4,0.1,0.8,0.3,1.2,0.5c0.4,0.2,0.8,0.5,1.2,0.9c0,0,0.1,0.1,0.1,0.1
		c0,0,0.1,0.1,0.1,0.1c0.3,0.4,0.6,0.8,0.6,1.2s0.1,0.7,0.1,0.8l0,0c0.1,1-0.1,1.8-0.5,2.5c-0.4,0.7-1,1.2-1.9,1.7l0,0
		c0.8,0.1,1.4,0.4,1.7,0.8c0.3,0.4,0.5,0.8,0.6,1.2c0,0.1,0,0.2,0.1,0.3s0,0.2,0,0.3l0.3,3.9l1.7-0.2l0.2,2.3l-4.8,0.4l-0.5-6
		c-0.1-0.6-0.3-1-0.8-1.2s-1-0.3-1.5-0.3c-0.1,0-0.3,0-0.4,0s-0.3,0-0.4,0l-1.9,0.2l0.5,5.5l1.9-0.2l0.2,2.3L142.5,45.2z
		 M146.5,34.6l2-0.2c0.9-0.1,1.6-0.3,2.3-0.6c0.7-0.4,1-1.1,0.9-2.3c-0.1-0.8-0.4-1.4-1-1.6c-0.6-0.2-1.2-0.3-2-0.3
		c-0.2,0-0.4,0-0.5,0c-0.2,0-0.3,0-0.5,0l-1.6,0.1L146.5,34.6z"/>
	<path fill="#FFFFFF" d="M161.2,31.4l0.2-4.8l13,0.7l-0.2,4.8l-2.8-0.1l0.1-2.5l-2.2-0.1L168.8,42l2.1,0.1l-0.1,2.3l-7.3-0.4
		l0.1-2.3l2.1,0.1l0.6-12.6l-2.2-0.1l-0.1,2.5L161.2,31.4z"/>
	<path fill="#FFFFFF" d="M181.7,39.8c-0.1,1.2,0.2,2.2,0.8,3c0.6,0.9,1.4,1.4,2.6,1.6c0.7,0.1,1.3,0,1.9-0.4c0.6-0.4,1-0.9,1.1-1.6
		c0.2-0.8,0.1-1.5-0.3-1.9c-0.4-0.4-1-0.8-1.7-1.2c-0.3-0.1-0.6-0.3-0.9-0.5c-0.3-0.2-0.7-0.3-1-0.5c-0.1-0.1-0.4-0.2-0.8-0.4
		c-0.4-0.2-0.8-0.5-1.3-0.8c-0.5-0.4-1-1-1.3-1.8c-0.4-0.8-0.4-1.7-0.2-3c0.1-0.3,0.1-0.6,0.3-0.9s0.3-0.6,0.5-0.9
		c0.5-0.6,1.2-1.2,2-1.6c0.9-0.4,2-0.5,3.3-0.3c0.7,0.1,1.3,0.4,1.8,0.8s1,0.8,1.4,1.4l0.2-1.1l2.5,0.5l-1,5.1l-2.4-0.5
		c0-0.5-0.1-0.9-0.2-1.3c-0.1-0.4-0.3-0.8-0.5-1.1c-0.2-0.3-0.5-0.6-0.9-0.9c-0.4-0.2-0.8-0.4-1.2-0.5c-0.7-0.1-1.3,0-1.8,0.3
		c-0.5,0.3-0.9,0.8-1,1.6c-0.1,0.6,0.1,1.2,0.6,1.6c0.5,0.4,1.2,0.8,2,1.2c0.2,0.1,0.5,0.2,0.7,0.3c0.2,0.1,0.5,0.2,0.7,0.4
		c1.1,0.6,2.1,1.3,2.9,2.1c0.8,0.8,1,2.2,0.7,4c-0.3,1.6-1.1,2.8-2.3,3.5c-1.2,0.8-2.6,1-4.1,0.7c-0.8-0.2-1.5-0.4-2.2-0.8
		c-0.7-0.4-1.3-0.8-1.8-1.5l-0.2,1l-2.5-0.5l1.1-5.8L181.7,39.8z"/>
	<path fill="#FFFFFF" d="M206.5,52.7l1-2.1l1.7,0.8l5.5-11.3l-1.7-0.8l1-2.1l6.1,3l-1,2.1l-1.7-0.8l-1.9,3.9l5.6,2.7l1.9-3.9
		l-1.7-0.8l1-2.1l6.1,3l-1,2.1l-1.7-0.8l-5.5,11.3l1.7,0.8l-1,2.1l-6.1-3l1-2.1l1.7,0.8l2.4-5l-5.6-2.7l-2.4,5l1.7,0.8l-1,2.1
		L206.5,52.7z"/>
	<path fill="#FFFFFF" d="M223.9,61.5l1.4-1.9l1.2,0.8l10.8-7.8l-1.5-1.1l1.4-1.9l7.3,5.2l-1.4,1.9l-1.5-1.1l-3.9,12.7l1.1,0.8
		l-1.4,1.9l-5.2-3.7l1.4-1.9l1.5,1.1l1-3.4l-4.3-3l-2.9,2.1l1.5,1.1l-1.4,1.9L223.9,61.5z M236.9,60.8l1.8-5.9l0,0l-5,3.6
		L236.9,60.8z"/>
	<path fill="#FFFFFF" d="M240,73.5l1.6-1.7l1.4,1.3l8.7-9.1l-1.4-1.3l1.6-1.7l5.2,5l-1.6,1.7l-1.5-1.5l-8.7,9.1l3,2.9l1.9-2l2,1.9
		l-3.5,3.7L240,73.5z"/>
	<path fill="#FFFFFF" d="M251.3,84.6l1.8-1.5l1.2,1.5l9.8-7.9l-1.2-1.5l1.8-1.5l4.5,5.6l-1.8,1.5l-1.3-1.6l-9.8,7.9l2.6,3.2l2.2-1.7
		l1.7,2.1l-4,3.2L251.3,84.6z"/>
	<path fill="#FFFFFF" d="M270.8,109.9c0.8-1.9,2.1-3.4,3.6-4.5c0.2-0.1,0.4-0.3,0.7-0.4s0.5-0.2,0.7-0.3c2.3-1,4.6-1.1,6.9-0.2
		c2.3,0.9,4,2.5,5,4.9c1.1,2.4,1.1,4.8,0.2,7c-0.9,2.3-2.5,3.9-4.8,5c-2.3,1-4.7,1.1-7,0.1c-2.3-1-3.9-2.6-4.9-4.8
		C270.1,114.1,269.9,111.8,270.8,109.9z M281.6,107.3c-1.6-0.5-3.2-0.3-4.9,0.4c-1.5,0.6-2.5,1.7-3.1,3.2c-0.6,1.5-0.5,3,0.1,4.4
		c0.7,1.6,1.9,2.7,3.4,3.3c1.6,0.6,3.2,0.5,4.8-0.2c1.5-0.7,2.6-1.8,3.3-3.3c0.6-1.5,0.6-3-0.1-4.6
		C284.4,108.8,283.2,107.7,281.6,107.3z"/>
	<path fill="#FFFFFF" d="M276.3,128.5l2.3-0.6l0.5,1.8l12.2-3.1l-0.5-1.8l2.3-0.6l3.3,13.1l-4.4,1.1l-0.7-2.7l2.2-0.6l-1.4-5.6
		l-4.2,1.1l1.3,5l-2.7,0.7l-1.3-5l-5.3,1.4l0.5,2l-2.3,0.6L276.3,128.5z"/>
	<path fill="#FFFFFF" d="M281.6,158.1l2.4,0l0,1.8l12.6-0.2l0-1.8l2.4,0l0.2,13.5l-4.6,0.1l0-2.8l2.2,0l-0.1-5.8l-4.4,0.1l0.1,5.2
		l-2.7,0l-0.1-5.2l-5.5,0.1l0,2l-2.4,0L281.6,158.1z"/>
	<path fill="#FFFFFF" d="M281.7,173.7l2.3,0.3l-0.2,1.4l11.9,6l0.3-1.9l2.3,0.3l-1.2,8.9l-2.3-0.3l0.3-1.9l-13.1,2.4l-0.2,1.3
		l-2.3-0.3l0.9-6.3l2.3,0.3l-0.3,1.9l3.5-0.7l0.7-5.2l-3.2-1.6l-0.3,1.9l-2.3-0.3L281.7,173.7z M288.3,184.9l6.1-1.1l0,0l-5.5-2.8
		L288.3,184.9z"/>
	<path fill="#FFFFFF" d="M290.4,202.2L290.4,202.2l-10.9-3.6l-0.6,1.8l-2.2-0.7l2-6.2l2.2,0.7l-0.5,1.6l12,3.9l0.5-1.6l2.2,0.7
		l-2.1,6.2l-10.5,0.1l0,0l8.3,6.5l-2,5.9l-2.2-0.7l0.5-1.6l-12-4l-0.5,1.6l-2.2-0.7l2-6.2l2.2,0.7l-0.6,1.8l10.9,3.6l0,0l-9.8-7.7
		l0.6-1.8L290.4,202.2z"/>
	<path fill="#FFFFFF" d="M270.8,215.6l2.1,1.1l-0.9,1.6l11.2,5.9l0.9-1.6l2.1,1.1l-6.2,11.8l-4.1-2.1l1.3-2.4l2,1l2.6-5l-3.9-2
		l-2.3,4.3l-2.4-1.3l2.3-4.3l-4.9-2.6l-2.6,5l2.5,1.3l-1.3,2.4l-4.6-2.4L270.8,215.6z"/>
</g>
<g>
	<path fill="#FFFFFF" d="M66.1,267l1.5-1.8l1.1,0.9l11.3-7l-1.5-1.2l1.5-1.8l6.9,5.7l-1.5,1.8l-1.4-1.2l-4.8,12.4l1,0.8l-1.5,1.8
		l-4.9-4l1.5-1.8l1.5,1.2l1.2-3.4l-4.1-3.3L71,268l1.4,1.2l-1.5,1.8L66.1,267z M79.1,267.2l2.2-5.8l0,0l-5.3,3.3L79.1,267.2z"/>
	<path fill="#FFFFFF" d="M94.3,271.7L94.3,271.7l-5.5,9.3l1.7,1l-1.2,2l-5.6-3.2l1.2-2l1.4,0.8l6.4-10.9l-1.4-0.8l1.2-2l4.9,2.9
		l-0.6,12l0,0l4.2-7.2l-1.5-0.9l1.2-2l5.6,3.3l-1.2,2l-1.6-0.9L96,288l-2.2-1.3L94.3,271.7z"/>
	<path fill="#FFFFFF" d="M110,278.2l-1.7-0.7l0.8-2.2l5.8,2.2c1.2,0.5,2.1,1,2.8,1.5c0.7,0.5,1.2,1,1.6,1.4c0.2,0.3,0.4,0.5,0.6,0.7
		c0.1,0.2,0.3,0.4,0.4,0.5c0.1,0.1,0.2,0.4,0.4,0.7c0.2,0.4,0.3,0.8,0.5,1.3c0.2,0.7,0.3,1.5,0.3,2.5c0,1-0.2,2-0.6,3.1
		c-0.3,0.9-0.8,1.6-1.3,2.2c-0.6,0.6-1.1,1.1-1.6,1.5c-0.4,0.3-0.8,0.5-1.1,0.7c-0.3,0.2-0.5,0.3-0.7,0.3c-0.1,0-0.3,0.1-0.4,0.1
		c-0.1,0-0.3,0.1-0.4,0.1c-0.9,0.3-1.9,0.4-2.9,0.4c-1,0-2.3-0.3-3.9-0.9l-5.6-2.2l0.8-2.2l1.7,0.7L110,278.2z M108.4,291.1l1.6,0.6
		c1.9,0.8,3.5,0.7,4.9-0.1c1.3-0.8,2.3-1.9,2.9-3.3c0-0.1,0.1-0.1,0.1-0.2c0-0.1,0.1-0.1,0.1-0.2c0.1-0.2,0.2-0.5,0.2-0.7
		c0.1-0.2,0.1-0.5,0.2-0.7c0.2-1.2,0.1-2.4-0.4-3.7c-0.5-1.3-1.7-2.3-3.5-3l-1.4-0.5L108.4,291.1z"/>
	<path fill="#FFFFFF" d="M133.9,287.1L133.9,287.1l-2,11.3l1.9,0.3l-0.4,2.3l-6.5-1.1l0.4-2.3l1.7,0.3l2.1-12.4l-1.7-0.3l0.4-2.3
		l6.5,1.1l1.6,10.4l0,0l5.2-9.2l6.2,1.1l-0.4,2.3l-1.7-0.3l-2.1,12.4l1.7,0.3l-0.4,2.3l-6.4-1.1l0.4-2.3l1.9,0.3l1.9-11.3l0,0
		l-6.2,10.8l-1.9-0.3L133.9,287.1z"/>
	<path fill="#FFFFFF" d="M152.8,286.4l6.7-0.1l0,2.4l-1.9,0l0.1,7.9c0,0.1,0,0.2,0,0.3c0,0.1,0,0.2,0,0.2c0,0.1,0,0.2,0,0.3
		c0,0.1,0,0.2,0,0.3c0,0.9,0.2,1.7,0.5,2.5s1.3,1.1,2.8,1.1c1.4,0,2.2-0.4,2.5-1.2c0.3-0.8,0.4-1.6,0.4-2.5c0-0.1,0-0.2,0-0.3
		c0-0.1,0-0.2,0-0.3c0-0.1,0-0.2,0-0.3c0-0.1,0-0.2,0-0.3l-0.1-7.9l-1.9,0l0-2.4l6.7-0.1l0,2.4l-1.7,0l0.1,9.2c0,2-0.4,3.4-1.4,4.4
		c-1,1-2.1,1.5-3.3,1.8c-0.2,0-0.4,0.1-0.6,0.1c-0.2,0-0.4,0-0.6,0c-1.7,0-3.3-0.4-4.5-1.4c-1.3-1-1.9-2.4-2-4.2l-0.2-9.6l-1.7,0
		L152.8,286.4z"/>
	<path fill="#FFFFFF" d="M177,296.7c0.3,1.1,0.9,2,1.7,2.6c0.8,0.6,1.8,0.8,3,0.7c0.7-0.1,1.3-0.4,1.7-1s0.6-1.2,0.5-1.9
		c-0.1-0.9-0.4-1.4-0.9-1.7c-0.5-0.3-1.2-0.4-2-0.5c-0.3,0-0.7-0.1-1-0.1c-0.4,0-0.7-0.1-1.1-0.1c-0.2,0-0.5-0.1-0.9-0.1
		c-0.4,0-0.9-0.2-1.5-0.3c-0.6-0.2-1.2-0.7-1.8-1.3c-0.6-0.6-1-1.5-1.2-2.7c0-0.3,0-0.6,0-0.9c0-0.3,0.1-0.7,0.2-1.1
		c0.2-0.8,0.7-1.5,1.4-2.2c0.7-0.7,1.7-1.2,3-1.4c0.7-0.1,1.3-0.1,2,0.1s1.2,0.4,1.8,0.8l-0.2-1.1l2.5-0.4l0.8,5.1l-2.4,0.4
		c-0.2-0.4-0.4-0.8-0.6-1.2c-0.3-0.3-0.5-0.6-0.9-0.9c-0.3-0.2-0.7-0.4-1.1-0.5c-0.4-0.1-0.9-0.1-1.3,0c-0.7,0.1-1.2,0.4-1.6,0.9
		s-0.5,1.1-0.4,1.8c0.1,0.6,0.5,1.1,1.1,1.3c0.7,0.2,1.4,0.4,2.3,0.5c0.2,0,0.5,0.1,0.8,0.1c0.3,0,0.5,0.1,0.8,0.1
		c1.2,0.2,2.4,0.5,3.4,1c1,0.5,1.7,1.7,2,3.5c0.2,1.6-0.1,3-1,4.1c-0.9,1.1-2.1,1.8-3.7,2c-0.8,0.1-1.6,0.1-2.3,0
		c-0.8-0.1-1.5-0.4-2.2-0.8l0.2,1l-2.5,0.4l-0.9-5.9L177,296.7z"/>
	<path fill="#FFFFFF" d="M193.6,299.7l-0.7-2.3l1.8-0.5l-3.6-12.1l-1.8,0.5l-0.7-2.3l12.8-3.8l1.3,4.4l-2.6,0.8l-0.6-2.1l-5.4,1.6
		l1.3,4.2l4.6-1.4l0.8,2.6l-4.6,1.4l1.6,5.3l5.4-1.6l-0.8-2.7l2.6-0.8l1.5,5L193.6,299.7z"/>
	<path fill="#FFFFFF" d="M204.7,278.2l6.1-2.9l1,2.1l-1.7,0.8l3.4,7.1c0,0.1,0.1,0.2,0.1,0.2s0.1,0.1,0.1,0.2c0,0.1,0.1,0.1,0.1,0.2
		c0,0.1,0.1,0.2,0.1,0.2c0.4,0.8,0.9,1.5,1.5,2c0.6,0.5,1.6,0.5,3-0.1c1.2-0.6,1.8-1.3,1.8-2.1c-0.1-0.8-0.3-1.6-0.7-2.4
		c0-0.1-0.1-0.1-0.1-0.2c0-0.1-0.1-0.2-0.1-0.2s-0.1-0.1-0.1-0.2c0-0.1-0.1-0.2-0.1-0.2l-3.4-7.1l-1.7,0.8l-1-2.1l6.1-2.9l1,2.1
		l-1.6,0.7l3.9,8.3c0.8,1.8,1,3.3,0.5,4.6c-0.5,1.3-1.2,2.3-2.2,3c-0.2,0.1-0.3,0.2-0.5,0.3c-0.2,0.1-0.3,0.2-0.5,0.3
		c-1.6,0.7-3.1,0.9-4.7,0.6c-1.6-0.4-2.7-1.4-3.5-3.1l-4.1-8.7l-1.6,0.7L204.7,278.2z"/>
	<path fill="#FFFFFF" d="M227.8,270L227.8,270l6.6,9.4l1.6-1.1l1.4,1.9L232,284l-1.4-1.9l1.4-1l-7.3-10.3l-1.4,1l-1.4-1.9l5.4-3.8
		l8.5,6.2l0,0l-2.8-10.2l5.1-3.6l1.4,1.9l-1.4,1l7.3,10.3l1.4-1l1.4,1.9l-5.3,3.8l-1.4-1.9l1.6-1.1l-6.6-9.4l0,0l3.2,12l-1.6,1.1
		L227.8,270z"/>
</g>
<circle fill="none" stroke="#000000" stroke-width="2" cx="160.8" cy="165" r="151.3"/>
</svg>
