<?xml version="1.0" encoding="utf-8"?>
<!-- Generator: Adobe Illustrator 27.5.0, SVG Export Plug-In . SVG Version: 6.00 Build 0)  -->
<svg version="1.1" id="Layer_1" xmlns="http://www.w3.org/2000/svg" xmlns:xlink="http://www.w3.org/1999/xlink" x="0px" y="0px"
	 viewBox="0 0 322.2 329.5" enable-background="new 0 0 322.2 329.5" xml:space="preserve">
<polygon fill="none" stroke="#FFFFFF" stroke-width="2" stroke-linecap="round" stroke-linejoin="round" points="146.3,202.5 
	137.6,184.5 137.6,202.5 146.3,202.5 "/>
<polygon fill="none" stroke="#FFFFFF" stroke-width="2" stroke-linecap="round" stroke-linejoin="round" points="175.6,202.5 
	184.4,184.5 184.4,202.5 175.6,202.5 "/>
<path fill-rule="evenodd" clip-rule="evenodd" fill="#FFFFFF" d="M153.2,206.4l-20.4-43v43h10.6V228H91.3v-21.6h12.5v-61.4H91.3
	v-21.1h59.3c0.1,0.1-3.8-0.9-6.2,2.6c-3,3.9-3.2,5.9-2.4,11c0.3,2.6,19,27.4,19,27.4c0,0.1,18.7-24.8,19-27.4
	c0.9-5.2,0.6-7.1-2.4-11c-2.4-3.5-6.3-2.6-6.2-2.6h59.3v21.1H218v61.4h12.5V228h-51.8v-21.6H189v-43l-20.4,43H153.2L153.2,206.4z"/>
<polygon fill="#FFFFFF" points="128,109.9 148.4,95.3 140.5,71.3 160.9,85.9 181.3,71.3 173.6,95.3 194,109.9 168.8,109.9 
	160.9,133.9 153.2,109.9 128,109.9 "/>
<polygon fill="none" stroke="#FFFFFF" stroke-width="2" stroke-linecap="round" stroke-linejoin="round" points="170.5,118.8 
	235.8,118.8 235.8,149.5 223.8,149.5 223.8,202.5 235.8,202.5 235.8,233.3 172.9,233.3 172.9,208.3 170.8,212.9 151.1,212.9 
	148.9,208.3 148.9,233.3 86,233.3 86,202.5 98,202.5 98,149.5 86,149.5 86,118.8 151.6,118.8 150.1,114.5 114.8,114.5 143.4,93.8 
	132.4,60.2 160.9,80.9 189.5,60.2 178.7,93.8 207.2,114.5 172,114.5 170.5,118.8 "/>
<path fill="none" stroke="#FFFFFF" stroke-width="2" stroke-linecap="round" stroke-linejoin="round" d="M160.9,143.3l6.2-15.8
	c-0.1,0.1,3.7-0.4,5.5,1.9c2,2.9,2.2,4.3,1.7,7.9c-0.3,1.8-13.4,19.4-13.4,19.4c0-0.1-13.1-17.6-13.4-19.4c-0.5-3.6-0.3-5,1.7-7.9
	c1.8-2.3,5.6-1.8,5.5-1.9L160.9,143.3L160.9,143.3z"/>
<g>
	<circle fill="none" cx="160.5" cy="160.3" r="116"/>
	<path fill="#FFFFFF" d="M58.4,79.8C58.5,79.8,58.5,79.8,58.4,79.8c0.1-0.1,0.1-0.1,0.1-0.1c0,0,0.1-0.1,0.1-0.1
		c0-0.1,0.1-0.1,0.1-0.2c0.1-0.2,0.3-0.4,0.4-0.6c0.2-0.2,0.3-0.5,0.4-0.8c0.2-0.5,0.3-1.1,0.2-1.7c-0.1-0.6-0.4-1.2-1.2-1.8
		c-0.8-0.6-1.4-0.9-2.1-0.8S55.5,74,55,74.4c-0.2,0.2-0.5,0.4-0.7,0.6c-0.2,0.2-0.4,0.4-0.5,0.5c-0.1,0.1-0.1,0.1-0.1,0.2
		c0,0.1-0.1,0.1-0.1,0.1c0,0.1-0.1,0.1-0.1,0.1c0,0,0,0.1-0.1,0.1L53,76.5l4.9,3.9L58.4,79.8z"/>
	<path fill="#FFFFFF" d="M124.3,40c1.4,0.8,2.8,1,4.4,0.6c1.7-0.5,3-1.4,3.8-2.9c0.8-1.5,1-3.1,0.5-4.8c-0.4-1.6-1.3-2.9-2.7-3.7
		c-1.4-0.9-2.9-1.1-4.5-0.7c-1.8,0.5-3.1,1.5-3.8,3c-0.7,1.5-0.8,3.1-0.4,4.9C122,38,122.9,39.2,124.3,40z"/>
	<path fill="#FFFFFF" d="M106.7,41.8C106.7,41.8,106.7,41.8,106.7,41.8c0.1,0,0.1,0,0.2-0.1c0.1,0,0.1,0,0.2,0
		c0.1,0,0.1-0.1,0.2-0.1c0.2-0.1,0.4-0.2,0.7-0.3c0.2-0.1,0.5-0.3,0.7-0.5c0.4-0.4,0.8-0.8,1-1.4c0.2-0.6,0.2-1.3-0.2-2.1
		c-0.4-0.9-0.9-1.4-1.5-1.6c-0.6-0.2-1.2-0.3-1.8-0.2c-0.3,0-0.6,0.1-0.8,0.2s-0.5,0.2-0.7,0.3c-0.1,0-0.1,0.1-0.2,0.1
		c-0.1,0-0.1,0-0.2,0.1c-0.1,0-0.1,0.1-0.1,0.1c0,0-0.1,0-0.1,0l-0.7,0.3l2.6,5.7L106.7,41.8z"/>
	<path fill="#FFFFFF" d="M114,274.7l-1.4-0.5l-4.6,11.8l1.6,0.6c1.9,0.8,3.5,0.7,4.9-0.1c1.3-0.8,2.3-1.9,2.9-3.3
		c0-0.1,0.1-0.1,0.1-0.2c0-0.1,0.1-0.1,0.1-0.2c0.1-0.2,0.2-0.5,0.2-0.7c0.1-0.2,0.1-0.5,0.2-0.7c0.2-1.2,0.1-2.4-0.4-3.7
		C117.1,276.4,115.9,275.4,114,274.7z"/>
	<path fill="#FFFFFF" d="M48.2,95C48.2,95,48.2,95,48.2,95c0.1-0.1,0.1-0.1,0.1-0.2c0,0,0.1-0.1,0.1-0.1s0.1-0.1,0.1-0.2
		c0.1-0.2,0.2-0.4,0.3-0.6c0.1-0.3,0.2-0.5,0.3-0.8c0.1-0.5,0.1-1.1,0-1.7c-0.1-0.6-0.6-1.2-1.4-1.6c-0.8-0.5-1.5-0.6-2.2-0.5
		C45,89.4,44.4,89.6,44,90c-0.2,0.2-0.4,0.4-0.6,0.7c-0.2,0.2-0.3,0.4-0.4,0.6c0,0.1-0.1,0.1-0.1,0.2c0,0.1-0.1,0.1-0.1,0.1
		c0,0.1,0,0.1-0.1,0.1c0,0,0,0.1,0,0.1l-0.4,0.6l5.4,3.2L48.2,95z"/>
	<path fill="#FFFFFF" d="M148.2,29.3c0.9-0.1,1.6-0.3,2.3-0.6c0.7-0.4,1-1.1,0.9-2.3c-0.1-0.8-0.4-1.4-1-1.6c-0.6-0.2-1.2-0.3-2-0.3
		c-0.2,0-0.4,0-0.5,0c-0.2,0-0.3,0-0.5,0l-1.6,0.1l0.4,4.7L148.2,29.3z"/>
	<path fill="#FFFFFF" d="M276.9,113.5c1.6,0.6,3.2,0.5,4.8-0.2c1.5-0.7,2.6-1.8,3.3-3.3c0.6-1.5,0.6-3-0.1-4.6
		c-0.8-1.7-2-2.8-3.5-3.3c-1.6-0.5-3.2-0.3-4.9,0.4c-1.5,0.6-2.5,1.7-3.1,3.2c-0.6,1.5-0.5,3,0.1,4.4
		C274.2,111.8,275.3,112.9,276.9,113.5z"/>
	<path fill="#FFFFFF" d="M160.5,14.9c-80.1,0-145,64.9-145,145s64.9,145,145,145s145-64.9,145-145S240.5,14.9,160.5,14.9z
		 M298.6,152.7l0.2,13.5l-4.6,0.1l0-2.8l2.2,0l-0.1-5.8l-4.4,0.1l0.1,5.2l-2.7,0l-0.1-5.2l-5.5,0.1l0,2l-2.4,0l-0.1-7l2.4,0l0,1.8
		l12.6-0.2l0-1.8L298.6,152.7z M292.8,119.1l3.3,13.1l-4.4,1.1l-0.7-2.7l2.2-0.6l-1.4-5.6l-4.2,1.1l1.3,5l-2.7,0.7l-1.3-5l-5.3,1.4
		l0.5,2l-2.3,0.6l-1.7-6.8l2.3-0.6l0.5,1.8l12.2-3.1l-0.5-1.8L292.8,119.1z M270.5,104.7c0.8-1.9,2.1-3.4,3.6-4.5
		c0.2-0.1,0.4-0.3,0.7-0.4s0.5-0.2,0.7-0.3c2.3-1,4.6-1.1,6.9-0.2c2.3,0.9,4,2.5,5,4.9c1.1,2.4,1.1,4.8,0.2,7
		c-0.9,2.3-2.5,3.9-4.8,5c-2.3,1-4.7,1.1-7,0.1c-2.3-1-3.9-2.6-4.9-4.8C269.8,108.9,269.6,106.6,270.5,104.7z M264.4,68.5l4.5,5.6
		l-1.8,1.5l-1.3-1.6l-9.8,7.9l2.6,3.2l2.2-1.7l1.7,2.1l-4,3.2l-7.5-9.3l1.8-1.5l1.2,1.5l9.8-7.9l-1.2-1.5L264.4,68.5z M251.7,55.8
		l5.2,5l-1.6,1.7l-1.5-1.5l-8.7,9.1l3,2.9l1.9-2l2,1.9l-3.5,3.7l-8.6-8.3l1.6-1.7l1.4,1.3l8.7-9.1l-1.4-1.3L251.7,55.8z M236.7,44.4
		l7.3,5.2l-1.4,1.9l-1.5-1.1l-3.9,12.7l1.1,0.8l-1.4,1.9l-5.2-3.7l1.4-1.9l1.5,1.1l1-3.4l-4.3-3l-2.9,2.1L230,58l-1.4,1.9l-5.1-3.6
		l1.4-1.9l1.2,0.8l10.8-7.8l-1.5-1.1L236.7,44.4z M207.2,45.5l1.7,0.8l5.5-11.3l-1.7-0.8l1-2.1l6.1,3l-1,2.1l-1.7-0.8l-1.9,3.9
		l5.6,2.7l1.9-3.9l-1.7-0.8l1-2.1l6.1,3l-1,2.1l-1.7-0.8L220,51.7l1.7,0.8l-1,2.1l-6.1-3l1-2.1l1.7,0.8l2.4-5l-5.6-2.7l-2.4,5
		l1.7,0.8l-1,2.1l-6.1-3L207.2,45.5z M179,34.2l2.4,0.5c-0.1,1.2,0.2,2.2,0.8,3c0.6,0.9,1.4,1.4,2.6,1.6c0.7,0.1,1.3,0,1.9-0.4
		c0.6-0.4,1-0.9,1.1-1.6c0.2-0.8,0.1-1.5-0.3-1.9c-0.4-0.4-1-0.8-1.7-1.2c-0.3-0.1-0.6-0.3-0.9-0.5c-0.3-0.2-0.7-0.3-1-0.5
		c-0.1-0.1-0.4-0.2-0.8-0.4c-0.4-0.2-0.8-0.5-1.3-0.8c-0.5-0.4-1-1-1.3-1.8c-0.4-0.8-0.4-1.7-0.2-3c0.1-0.3,0.1-0.6,0.3-0.9
		s0.3-0.6,0.5-0.9c0.5-0.6,1.2-1.2,2-1.6c0.9-0.4,2-0.5,3.3-0.3c0.7,0.1,1.3,0.4,1.8,0.8s1,0.8,1.4,1.4l0.2-1.1l2.5,0.5l-1,5.1
		l-2.4-0.5c0-0.5-0.1-0.9-0.2-1.3c-0.1-0.4-0.3-0.8-0.5-1.1c-0.2-0.3-0.5-0.6-0.9-0.9c-0.4-0.2-0.8-0.4-1.2-0.5
		c-0.7-0.1-1.3,0-1.8,0.3c-0.5,0.3-0.9,0.8-1,1.6c-0.1,0.6,0.1,1.2,0.6,1.6c0.5,0.4,1.2,0.8,2,1.2c0.2,0.1,0.5,0.2,0.7,0.3
		c0.2,0.1,0.5,0.2,0.7,0.4c1.1,0.6,2.1,1.3,2.9,2.1c0.8,0.8,1,2.2,0.7,4c-0.3,1.6-1.1,2.8-2.3,3.5c-1.2,0.8-2.6,1-4.1,0.7
		c-0.8-0.2-1.5-0.4-2.2-0.8c-0.7-0.4-1.3-0.8-1.8-1.5l-0.2,1l-2.5-0.5L179,34.2z M161.2,21.4l13,0.7l-0.2,4.8l-2.8-0.1l0.1-2.5
		l-2.2-0.1l-0.6,12.6l2.1,0.1l-0.1,2.3l-7.3-0.4l0.1-2.3l2.1,0.1L166,24l-2.2-0.1l-0.1,2.5l-2.8-0.1L161.2,21.4z M148,22.1
		c0,0,0.1,0,0.1,0c0,0,0.1,0,0.1,0c0.4,0,0.8-0.1,1.3-0.1c0.5,0,1,0,1.5,0.2c0.4,0.1,0.8,0.3,1.2,0.5c0.4,0.2,0.8,0.5,1.2,0.9
		c0,0,0.1,0.1,0.1,0.1c0,0,0.1,0.1,0.1,0.1c0.3,0.4,0.6,0.8,0.6,1.2s0.1,0.7,0.1,0.8l0,0c0.1,1-0.1,1.8-0.5,2.5
		c-0.4,0.7-1,1.2-1.9,1.7l0,0c0.8,0.1,1.4,0.4,1.7,0.8c0.3,0.4,0.5,0.8,0.6,1.2c0,0.1,0,0.2,0.1,0.3s0,0.2,0,0.3l0.3,3.9l1.7-0.2
		l0.2,2.3l-4.8,0.4l-0.5-6c-0.1-0.6-0.3-1-0.8-1.2s-1-0.3-1.5-0.3c-0.1,0-0.3,0-0.4,0s-0.3,0-0.4,0l-1.9,0.2l0.5,5.5l1.9-0.2
		l0.2,2.3l-6.9,0.6l-0.2-2.3l1.8-0.2L142.7,25l-1.8,0.2l-0.2-2.3L148,22.1z M119.4,30c1.2-2.2,3.1-3.6,5.6-4.2
		c2.5-0.7,4.9-0.4,7,0.9s3.5,3.1,4.1,5.5c0.7,2.5,0.3,4.8-1,6.9c-1.3,2.1-3.2,3.5-5.5,4.1c-2.7,0.7-4.9,0.5-6.7-0.6
		c-1.8-1.1-3.1-2.6-3.9-4.3c-0.1-0.2-0.2-0.5-0.3-0.7s-0.2-0.5-0.2-0.7C117.9,34.5,118.2,32.2,119.4,30z M103.9,33.7
		c1.5-0.7,3.1-0.9,4.7-0.8c1.6,0.1,2.8,1.2,3.7,3c0.8,1.7,0.8,3.2,0.2,4.3s-1.5,2.1-2.7,2.7c-0.1,0.1-0.3,0.1-0.4,0.2
		c-0.1,0.1-0.3,0.1-0.4,0.2l-2,0.9l1.6,3.7l2-0.9l1,2.1l-6.6,3l-1-2.1l1.7-0.8l-5.2-11.5l-1.7,0.8l-1-2.1L103.9,33.7z M83.7,45.4
		c0.3-0.9,1.1-1.7,2.2-2.5c0.6-0.4,1.2-0.6,1.8-0.7c0.7-0.1,1.3-0.1,1.9,0l-0.6-0.9l2.1-1.3l2.8,4.4l-2,1.3c-0.3-0.3-0.7-0.6-1-0.8
		c-0.4-0.2-0.8-0.4-1.1-0.4c-0.4-0.1-0.8-0.1-1.2,0c-0.4,0.1-0.8,0.2-1.2,0.5c-0.6,0.4-1,0.9-1.1,1.4c-0.2,0.6-0.1,1.2,0.4,1.8
		c0.3,0.5,0.9,0.8,1.5,0.7s1.5-0.2,2.3-0.5c0.2-0.1,0.5-0.2,0.7-0.2s0.5-0.2,0.8-0.2c1.2-0.3,2.4-0.5,3.5-0.4c1.2,0,2.2,0.9,3.2,2.4
		c0.9,1.4,1.1,2.7,0.8,4.1s-1.2,2.5-2.5,3.3c-0.7,0.4-1.4,0.7-2.1,0.9c-0.7,0.2-1.5,0.2-2.3,0.1l0.6,0.9l-2.1,1.3l-3.2-5l2-1.3
		c0.7,0.9,1.6,1.5,2.6,1.7s2,0,3-0.6c0.6-0.4,1-0.9,1.2-1.6c0.2-0.7,0.1-1.3-0.3-1.9c-0.5-0.7-1-1.1-1.5-1.1s-1.2,0.1-2.1,0.3
		c-0.3,0.1-0.6,0.2-1,0.3c-0.3,0.1-0.7,0.2-1.1,0.3c-0.2,0-0.5,0.1-0.9,0.3s-0.9,0.2-1.5,0.3c-0.7,0-1.4-0.1-2.2-0.4
		c-0.8-0.3-1.5-1-2.2-2c-0.1-0.2-0.3-0.5-0.4-0.8c-0.1-0.3-0.2-0.7-0.2-1C83.2,47.2,83.4,46.3,83.7,45.4z M65.2,59.6l1.7,1.7
		l-1.3,1.3l8.9,8.9l1.3-1.3l1.7,1.7l-4.8,4.7L71,75l1.3-1.3l-8.9-8.9l-1.3,1.3l-1.7-1.7L65.2,59.6z M52.2,73.9
		c1.1-1.3,2.3-2.3,3.8-2.9c1.5-0.6,3-0.3,4.7,1c1.5,1.2,2.2,2.4,2.1,3.8s-0.4,2.6-1.1,3.7c-0.1,0.1-0.2,0.2-0.3,0.4
		c-0.1,0.1-0.2,0.3-0.3,0.4l-1.4,1.7l3.1,2.5l1.4-1.7l1.8,1.5l-4.5,5.7l-1.8-1.5l1.2-1.5L51.1,79l-1.2,1.5L48.1,79L52.2,73.9z
		 M41.2,90c0.9-1.4,2-2.6,3.4-3.4c1.4-0.8,3-0.7,4.8,0.4c1.6,0.9,2.5,2.1,2.6,3.4c0.1,1.3,0,2.6-0.6,3.8c-0.1,0.1-0.1,0.3-0.2,0.4
		c-0.1,0.1-0.1,0.3-0.2,0.4l-1.1,1.9l3.5,2l1.1-1.9l2,1.2l-3.7,6.2l-2-1.2l1-1.6l-10.9-6.4l-1,1.6l-2-1.2L41.2,90z M35.4,100.9
		l2.2,1l-0.7,1.6l11.5,5.1l0.7-1.6l2.2,1l-2.7,6.1l-2.2-1l0.7-1.7l-11.5-5.1l-0.7,1.7l-2.2-1L35.4,100.9z M27.9,119.4
		c0.2-0.6,0.5-1.2,1-1.7c0.4-0.5,0.9-0.9,1.5-1.2l-1.1-0.3l0.7-2.4l5,1.5l-0.7,2.3c-0.5,0-0.9,0-1.3,0.1c-0.4,0.1-0.8,0.2-1.2,0.4
		c-0.4,0.2-0.7,0.5-1,0.8c-0.3,0.3-0.5,0.7-0.6,1.2c-0.2,0.7-0.2,1.3,0.1,1.8c0.3,0.6,0.7,0.9,1.5,1.2c0.6,0.2,1.2,0,1.6-0.5
		c0.5-0.5,1-1.1,1.4-1.9c0.1-0.2,0.3-0.4,0.4-0.7c0.1-0.2,0.3-0.5,0.4-0.7c0.7-1,1.5-1.9,2.4-2.6s2.3-0.8,4-0.3
		c1.5,0.5,2.6,1.4,3.3,2.6c0.6,1.3,0.7,2.7,0.2,4.2c-0.2,0.8-0.6,1.5-1,2.1c-0.4,0.6-1,1.2-1.7,1.6l1,0.3l-0.7,2.4l-5.7-1.8l0.7-2.3
		c1.1,0.2,2.2,0.1,3.1-0.4c0.9-0.5,1.6-1.3,1.9-2.4c0.2-0.7,0.2-1.3-0.2-2c-0.3-0.6-0.8-1.1-1.5-1.3c-0.8-0.3-1.5-0.2-1.9,0.1
		c-0.4,0.3-0.9,0.9-1.4,1.6c-0.2,0.3-0.4,0.6-0.6,0.9c-0.2,0.3-0.4,0.6-0.6,1c-0.1,0.1-0.3,0.4-0.5,0.8c-0.2,0.4-0.5,0.8-1,1.2
		c-0.5,0.5-1.1,0.8-1.9,1.1c-0.8,0.3-1.8,0.2-3-0.1c-0.3-0.1-0.5-0.2-0.8-0.4c-0.3-0.2-0.6-0.4-0.9-0.6c-0.6-0.5-1-1.3-1.4-2.2
		C27.4,121.8,27.5,120.7,27.9,119.4z M23.5,138.4c0.1-0.7,0.3-1.3,0.7-1.8c0.4-0.6,0.8-1,1.3-1.4l-1.1-0.2l0.4-2.5l5.1,0.8l-0.4,2.4
		c-0.5,0-0.9,0.1-1.3,0.2c-0.4,0.1-0.8,0.3-1.1,0.6c-0.3,0.3-0.6,0.6-0.8,0.9c-0.2,0.4-0.4,0.8-0.4,1.3c-0.1,0.7,0,1.3,0.3,1.8
		c0.3,0.5,0.9,0.8,1.6,1c0.6,0.1,1.1-0.1,1.5-0.7c0.4-0.6,0.8-1.3,1.2-2.1c0.1-0.2,0.2-0.5,0.3-0.7c0.1-0.2,0.2-0.5,0.3-0.7
		c0.5-1.1,1.2-2.1,2-2.9c0.8-0.8,2.1-1.1,4-0.8c1.6,0.3,2.8,1,3.6,2.2c0.8,1.2,1.1,2.6,0.8,4.1c-0.1,0.8-0.4,1.5-0.7,2.2
		c-0.3,0.7-0.8,1.3-1.4,1.8l1,0.2l-0.4,2.5l-5.9-0.9l0.4-2.4c1.2,0,2.2-0.2,3-0.9c0.8-0.6,1.4-1.5,1.5-2.6c0.1-0.7,0-1.3-0.4-1.9
		c-0.4-0.6-1-0.9-1.7-1.1c-0.9-0.1-1.5,0-1.9,0.4c-0.4,0.4-0.8,1-1.1,1.8c-0.1,0.3-0.3,0.6-0.4,1c-0.2,0.3-0.3,0.7-0.5,1
		c-0.1,0.2-0.2,0.4-0.4,0.8c-0.2,0.4-0.4,0.8-0.8,1.3c-0.4,0.5-1,1-1.8,1.4c-0.8,0.4-1.7,0.5-2.9,0.3c-0.3,0-0.6-0.1-0.9-0.3
		c-0.3-0.1-0.6-0.3-0.9-0.5c-0.7-0.5-1.2-1.1-1.7-2C23.4,140.9,23.3,139.8,23.5,138.4z M22.5,150.2l2.3,0.1l-0.1,1.8l12.6,0.6
		l0.1-1.8l2.3,0.1l-0.3,6.7l-2.3-0.1l0.1-1.8l-12.6-0.6l-0.1,1.8l-2.3-0.1L22.5,150.2z M23.3,173.2c-0.6-0.7-1-1.8-1.1-3.1
		c0-0.7,0-1.3,0.3-2c0.2-0.6,0.5-1.2,1-1.7l-1.1,0.1l-0.2-2.5l5.2-0.4l0.2,2.4c-0.4,0.1-0.8,0.3-1.2,0.5c-0.4,0.2-0.7,0.5-0.9,0.8
		c-0.3,0.3-0.5,0.7-0.6,1.1c-0.1,0.4-0.2,0.8-0.2,1.3c0,0.7,0.3,1.3,0.7,1.7c0.4,0.4,1,0.6,1.8,0.6c0.6,0,1.1-0.4,1.4-1
		c0.3-0.6,0.5-1.4,0.7-2.3c0-0.2,0.1-0.5,0.2-0.8c0.1-0.3,0.1-0.5,0.2-0.8c0.3-1.2,0.7-2.3,1.3-3.3c0.6-1,1.8-1.6,3.7-1.7
		c1.6-0.1,2.9,0.3,4,1.3c1,1,1.6,2.2,1.7,3.8c0.1,0.8,0,1.6-0.2,2.3c-0.2,0.7-0.5,1.4-1,2.1l1.1-0.1l0.2,2.5l-5.9,0.4l-0.2-2.4
		c1.1-0.2,2.1-0.7,2.7-1.5c0.7-0.8,1-1.8,0.9-2.9c0-0.7-0.3-1.3-0.9-1.8c-0.5-0.5-1.1-0.7-1.9-0.7c-0.9,0.1-1.4,0.3-1.7,0.8
		s-0.5,1.1-0.7,2c-0.1,0.3-0.1,0.7-0.2,1c-0.1,0.4-0.2,0.7-0.2,1.1c0,0.2-0.1,0.5-0.2,0.9s-0.2,0.9-0.5,1.4
		c-0.3,0.6-0.8,1.2-1.4,1.7c-0.6,0.5-1.6,0.9-2.8,0.9c-0.3,0-0.6,0-0.9-0.1c-0.3-0.1-0.7-0.2-1-0.3C24.7,174.5,24,173.9,23.3,173.2z
		 M25,189.4c-0.1-0.7-0.1-1.3,0-2c0.1-0.7,0.4-1.3,0.7-1.8l-1.1,0.2l-0.5-2.5l5.1-1.1l0.5,2.3c-0.4,0.2-0.8,0.4-1.1,0.7
		c-0.3,0.3-0.6,0.6-0.8,0.9c-0.2,0.4-0.4,0.7-0.4,1.2c-0.1,0.4-0.1,0.9,0,1.3c0.1,0.7,0.5,1.2,1,1.6c0.5,0.4,1.1,0.5,1.8,0.3
		c0.6-0.1,1-0.5,1.2-1.2c0.2-0.7,0.3-1.5,0.3-2.4c0-0.2,0-0.5,0-0.8c0-0.3,0-0.5,0.1-0.8c0.1-1.2,0.4-2.4,0.8-3.5
		c0.4-1.1,1.6-1.8,3.4-2.2c1.6-0.3,3-0.1,4.1,0.7s1.9,2,2.2,3.5c0.2,0.8,0.2,1.6,0.1,2.3c-0.1,0.8-0.3,1.5-0.7,2.2l1-0.2l0.5,2.5
		l-5.8,1.2l-0.5-2.4c1.1-0.4,1.9-1,2.5-1.9c0.6-0.9,0.7-1.9,0.5-3c-0.1-0.7-0.5-1.2-1.1-1.6c-0.6-0.4-1.2-0.5-1.9-0.4
		c-0.8,0.2-1.4,0.5-1.6,1c-0.2,0.5-0.4,1.2-0.4,2c0,0.3,0,0.7,0,1c0,0.4,0,0.7-0.1,1.1c0,0.2,0,0.5,0,0.9c0,0.4-0.1,0.9-0.3,1.5
		c-0.2,0.6-0.6,1.3-1.2,1.9c-0.6,0.6-1.4,1.1-2.7,1.3c-0.3,0.1-0.6,0.1-0.9,0.1c-0.3,0-0.7-0.1-1.1-0.1c-0.8-0.2-1.5-0.6-2.3-1.3
		C25.8,191.7,25.3,190.7,25,189.4z M28.3,200.7l2.2-0.7l0.6,1.7l12-4l-0.6-1.7l2.2-0.7l2.1,6.4l-2.2,0.7l-0.6-1.7l-12,4l0.6,1.7
		l-2.2,0.7L28.3,200.7z M54.7,224l-0.8-1.5l-11.3,5.7l0.8,1.5l-2.1,1.1l-3-5.9l7.4-7.4l0,0l-10.5,1.2l-2.8-5.6l2.1-1.1l0.8,1.5
		l11.3-5.7l-0.8-1.5l2.1-1.1l2.9,5.8l-2.1,1.1l-0.9-1.7l-10.2,5.2l0,0l12.4-1.4l0.9,1.7l-8.5,9.1l0,0l10.2-5.2l-0.9-1.7l2.1-1.1
		l2.9,5.9L54.7,224z M78.5,272.3l-4.9-4l1.5-1.8l1.5,1.2l1.2-3.4l-4.1-3.3l-3.1,1.9l1.4,1.2l-1.5,1.8l-4.8-3.9l1.5-1.8l1.1,0.9
		l11.3-7l-1.5-1.2l1.5-1.8l6.9,5.7l-1.5,1.8l-1.4-1.2L79,269.6l1,0.8L78.5,272.3z M93.5,281.5l0.5-15l0,0l-5.5,9.4l1.7,1l-1.2,2
		l-5.6-3.2l1.2-2l1.4,0.8l6.4-10.9l-1.4-0.8l1.2-2l4.9,2.9l-0.6,12l0,0l4.2-7.2l-1.5-0.9l1.2-2l5.6,3.3l-1.2,2l-1.6-0.9l-7.5,12.9
		L93.5,281.5z M120.4,284.1c-0.3,0.9-0.8,1.6-1.3,2.2c-0.6,0.6-1.1,1.1-1.6,1.5c-0.4,0.3-0.8,0.5-1.1,0.7c-0.3,0.2-0.5,0.3-0.7,0.3
		c-0.1,0-0.3,0.1-0.4,0.1c-0.1,0-0.3,0.1-0.4,0.1c-0.9,0.3-1.9,0.4-2.9,0.4c-1,0-2.3-0.3-3.9-0.9l-5.6-2.2l0.8-2.2l1.7,0.7l4.5-11.8
		l-1.7-0.7l0.8-2.2l5.8,2.2c1.2,0.5,2.1,1,2.8,1.5c0.7,0.5,1.2,1,1.6,1.4c0.2,0.3,0.4,0.5,0.6,0.7c0.1,0.2,0.3,0.4,0.4,0.5
		c0.1,0.1,0.2,0.4,0.4,0.7c0.2,0.4,0.3,0.8,0.5,1.3c0.2,0.7,0.3,1.5,0.3,2.5C121.1,282,120.9,283,120.4,284.1z M148.8,283.4
		l-1.7-0.3l-2.1,12.4l1.7,0.3l-0.4,2.3l-6.4-1.1l0.4-2.3l1.9,0.3l1.9-11.3l0,0l-6.2,10.8l-1.9-0.3l-2.3-12.3l0,0l-1.9,11.3l1.9,0.3
		l-0.4,2.3l-6.5-1.1l0.4-2.3l1.7,0.3l2.1-12.4l-1.7-0.3l0.4-2.3l6.5,1.1l1.6,10.4l0,0l5.2-9.2l6.2,1.1L148.8,283.4z M166.8,292.5
		c0,2-0.4,3.4-1.4,4.4c-1,1-2.1,1.5-3.3,1.8c-0.2,0-0.4,0.1-0.6,0.1c-0.2,0-0.4,0-0.6,0c-1.7,0-3.3-0.4-4.5-1.4
		c-1.3-1-1.9-2.4-2-4.2l-0.2-9.6l-1.7,0l0-2.4l6.7-0.1l0,2.4l-1.9,0l0.1,7.9c0,0.1,0,0.2,0,0.3c0,0.1,0,0.2,0,0.2c0,0.1,0,0.2,0,0.3
		c0,0.1,0,0.2,0,0.3c0,0.9,0.2,1.7,0.5,2.5s1.3,1.1,2.8,1.1c1.4,0,2.2-0.4,2.5-1.2c0.3-0.8,0.4-1.6,0.4-2.5c0-0.1,0-0.2,0-0.3
		c0-0.1,0-0.2,0-0.3c0-0.1,0-0.2,0-0.3c0-0.1,0-0.2,0-0.3l-0.1-7.9l-1.9,0l0-2.4l6.7-0.1l0,2.4l-1.7,0L166.8,292.5z M185.6,295
		c-0.9,1.1-2.1,1.8-3.7,2c-0.8,0.1-1.6,0.1-2.3,0c-0.8-0.1-1.5-0.4-2.2-0.8l0.2,1l-2.5,0.4l-0.9-5.9l2.4-0.4c0.3,1.1,0.9,2,1.7,2.6
		c0.8,0.6,1.8,0.8,3,0.7c0.7-0.1,1.3-0.4,1.7-1s0.6-1.2,0.5-1.9c-0.1-0.9-0.4-1.4-0.9-1.7c-0.5-0.3-1.2-0.4-2-0.5
		c-0.3,0-0.7-0.1-1-0.1c-0.4,0-0.7-0.1-1.1-0.1c-0.2,0-0.5-0.1-0.9-0.1c-0.4,0-0.9-0.2-1.5-0.3c-0.6-0.2-1.2-0.7-1.8-1.3
		c-0.6-0.6-1-1.5-1.2-2.7c0-0.3,0-0.6,0-0.9c0-0.3,0.1-0.7,0.2-1.1c0.2-0.8,0.7-1.5,1.4-2.2c0.7-0.7,1.7-1.2,3-1.4
		c0.7-0.1,1.3-0.1,2,0.1s1.2,0.4,1.8,0.8l-0.2-1.1l2.5-0.4l0.8,5.1l-2.4,0.4c-0.2-0.4-0.4-0.8-0.6-1.2c-0.3-0.3-0.5-0.6-0.9-0.9
		c-0.3-0.2-0.7-0.4-1.1-0.5c-0.4-0.1-0.9-0.1-1.3,0c-0.7,0.1-1.2,0.4-1.6,0.9s-0.5,1.1-0.4,1.8c0.1,0.6,0.5,1.1,1.1,1.3
		c0.7,0.2,1.4,0.4,2.3,0.5c0.2,0,0.5,0.1,0.8,0.1c0.3,0,0.5,0.1,0.8,0.1c1.2,0.2,2.4,0.5,3.4,1c1,0.5,1.7,1.7,2,3.5
		C186.8,292.6,186.5,293.9,185.6,295z M193.3,294.6l-0.7-2.3l1.8-0.5l-3.6-12.1l-1.8,0.5l-0.7-2.3l12.8-3.8l1.3,4.4l-2.6,0.8
		l-0.6-2.1l-5.4,1.6l1.3,4.2l4.6-1.4l0.8,2.6l-4.6,1.4l1.6,5.3l5.4-1.6l-0.8-2.7l2.6-0.8l1.5,5L193.3,294.6z M222.6,282
		c-0.5,1.3-1.2,2.3-2.2,3c-0.2,0.1-0.3,0.2-0.5,0.3c-0.2,0.1-0.3,0.2-0.5,0.3c-1.6,0.7-3.1,0.9-4.7,0.6c-1.6-0.4-2.7-1.4-3.5-3.1
		l-4.1-8.7l-1.6,0.7l-1-2.1l6.1-2.9l1,2.1l-1.7,0.8l3.4,7.1c0,0.1,0.1,0.2,0.1,0.2s0.1,0.1,0.1,0.2c0,0.1,0.1,0.1,0.1,0.2
		c0,0.1,0.1,0.2,0.1,0.2c0.4,0.8,0.9,1.5,1.5,2c0.6,0.5,1.6,0.5,3-0.1c1.2-0.6,1.8-1.3,1.8-2.1c-0.1-0.8-0.3-1.6-0.7-2.4
		c0-0.1-0.1-0.1-0.1-0.2c0-0.1-0.1-0.2-0.1-0.2s-0.1-0.1-0.1-0.2c0-0.1-0.1-0.2-0.1-0.2l-3.4-7.1l-1.7,0.8l-1-2.1l6.1-2.9l1,2.1
		l-1.6,0.7l3.9,8.3C222.9,279.2,223.1,280.7,222.6,282z M242.6,271.2l-1.4-1.9l1.6-1.1l-6.6-9.4l0,0l3.2,12l-1.6,1.1l-10.3-7.1l0,0
		l6.6,9.4l1.6-1.1l1.4,1.9l-5.4,3.8l-1.4-1.9l1.4-1l-7.3-10.3l-1.4,1l-1.4-1.9l5.4-3.8l8.5,6.2l0,0l-2.8-10.2l5.1-3.6l1.4,1.9
		l-1.4,1l7.3,10.3l1.4-1l1.4,1.9L242.6,271.2z M160.5,276.3c-64,0-116-51.9-116-116s51.9-116,116-116s116,51.9,116,116
		S224.5,276.3,160.5,276.3z M279.6,230.3l-4.1-2.1l1.3-2.4l2,1l2.6-5l-3.9-2l-2.3,4.3l-2.4-1.3l2.3-4.3l-4.9-2.6l-2.6,5l2.5,1.3
		l-1.3,2.4l-4.6-2.4l6.2-11.8l2.1,1.1l-0.9,1.6l11.2,5.9l0.9-1.6l2.1,1.1L279.6,230.3z M292.8,199.9l-10.5,0.1l0,0l8.3,6.5l-2,5.9
		l-2.2-0.7l0.5-1.6l-12-4l-0.5,1.6l-2.2-0.7l2-6.2l2.2,0.7l-0.6,1.8l10.9,3.6l0,0l-9.8-7.7l0.6-1.8l12.5-0.4l0,0l-10.9-3.6l-0.6,1.8
		l-2.2-0.7l2-6.2l2.2,0.7l-0.5,1.6l12,3.9l0.5-1.6l2.2,0.7L292.8,199.9z M296.7,183.6l-2.3-0.3l0.3-1.9l-13.1,2.4l-0.2,1.3l-2.3-0.3
		l0.9-6.3l2.3,0.3l-0.3,1.9l3.5-0.7l0.7-5.2l-3.2-1.6l-0.3,1.9l-2.3-0.3l0.9-6.2l2.3,0.3l-0.2,1.4l11.9,6l0.3-1.9l2.3,0.3
		L296.7,183.6z"/>
	<polygon fill="#FFFFFF" points="288,179.7 294,178.6 294,178.6 288.5,175.8 	"/>
	<polygon fill="#FFFFFF" points="236.6,55.6 238.4,49.7 238.3,49.7 233.3,53.3 	"/>
	<polygon fill="#FFFFFF" points="81,256.3 75.7,259.5 78.8,262.1 81,256.3 	"/>
</g>
<circle fill="none" stroke="#FFFFFF" stroke-width="2" cx="160.5" cy="159.8" r="151.3"/>
</svg>
